<?xml version="1.0" standalone="no"?>
<!DOCTYPE svg PUBLIC "-//W3C//DTD SVG 20010904//EN"
 "http://www.w3.org/TR/2001/REC-SVG-20010904/DTD/svg10.dtd">
<svg version="1.0" xmlns="http://www.w3.org/2000/svg"
 width="344.000000pt" height="344.000000pt" viewBox="0 0 344.000000 344.000000"
 preserveAspectRatio="xMidYMid meet">
<metadata>
Created by potrace 1.11, written by Peter Selinger 2001-2013
</metadata>
<g transform="translate(0.000000,344.000000) scale(0.100000,-0.100000)"
fill="#000000" stroke="none">
<path d="M1752 3308 c-15 -15 -15 -46 -1 -87 13 -36 24 -39 39 -10 19 34 20
62 5 86 -17 26 -26 28 -43 11z"/>
<path d="M1656 3193 c-11 -11 -6 -41 10 -57 23 -24 34 -19 34 14 0 28 -29 57
-44 43z"/>
<path d="M1923 3175 c-13 -5 -23 -15 -23 -22 0 -6 -4 -13 -10 -15 -5 -1 -12
-18 -16 -35 -6 -28 -4 -33 13 -33 47 0 103 53 103 98 0 14 -42 19 -67 7z"/>
<path d="M1446 3127 c-20 -15 -14 -62 11 -71 8 -3 11 -10 8 -16 -3 -6 5 -10
19 -10 13 0 37 -5 51 -10 15 -6 30 -8 35 -5 13 8 -11 85 -26 85 -8 0 -14 7
-14 16 0 11 -6 15 -20 11 -11 -3 -20 -1 -20 4 0 13 -23 11 -44 -4z"/>
<path d="M1750 3121 c-14 -28 -13 -64 4 -87 12 -16 17 -17 28 -6 7 7 14 17 14
22 1 6 2 11 3 13 2 1 4 13 7 26 8 44 -35 69 -56 32z"/>
<path d="M1291 3046 c-18 -23 -4 -77 29 -108 18 -16 37 -27 44 -25 16 6 12
103 -5 120 -20 19 -57 27 -68 13z"/>
<path d="M1630 3044 c-19 -22 -21 -64 -4 -71 7 -3 12 -9 9 -13 -2 -4 4 -15 15
-25 25 -22 52 -12 49 17 -2 13 0 28 3 33 7 11 -37 75 -52 75 -4 0 -13 -7 -20
-16z"/>
<path d="M1829 3023 c-17 -4 -39 -43 -39 -70 0 -10 5 -13 18 -8 9 4 25 9 34
12 9 3 21 18 27 33 13 38 4 45 -40 33z"/>
<path d="M1943 3020 c-13 -5 -23 -16 -23 -25 0 -8 -7 -15 -16 -15 -11 0 -14
-6 -9 -20 4 -12 2 -27 -4 -34 -8 -10 -7 -16 3 -25 8 -7 12 -19 10 -26 -3 -7 3
-18 14 -24 15 -8 23 -6 36 8 9 9 16 23 16 29 0 6 9 16 21 23 15 8 18 14 10 22
-7 7 -7 14 1 24 8 10 8 17 0 25 -7 7 -12 20 -12 30 0 20 -13 22 -47 8z"/>
<path d="M1512 2968 c-22 -22 -6 -118 20 -118 15 0 39 70 32 93 -11 35 -32 45
-52 25z"/>
<path d="M2115 2962 c-4 -4 -10 -7 -14 -7 -14 0 -40 -33 -47 -60 -7 -27 -6
-28 27 -21 42 8 82 46 74 68 -7 19 -30 30 -40 20z"/>
<path d="M2237 2932 c-10 -10 -17 -26 -17 -35 0 -9 -5 -19 -11 -23 -8 -4 -8
-9 0 -17 6 -6 11 -20 11 -32 0 -12 6 -29 13 -38 11 -15 15 -14 40 9 16 13 27
30 24 37 -2 6 2 20 11 30 10 11 11 17 4 17 -7 0 -12 10 -12 21 0 19 -24 48
-41 49 -3 0 -13 -8 -22 -18z"/>
<path d="M1208 2918 c-14 -28 -18 -59 -8 -73 4 -5 10 -22 14 -37 8 -36 27 -35
54 2 13 17 18 30 12 30 -7 0 -7 7 1 21 9 17 8 23 -2 30 -7 4 -10 11 -6 15 8 8
-22 33 -40 34 -7 0 -18 -10 -25 -22z"/>
<path d="M1727 2890 c-10 -16 -23 -30 -28 -30 -6 0 -5 -9 2 -22 9 -16 9 -23 0
-26 -15 -5 -14 -27 3 -42 8 -6 12 -18 9 -25 -3 -8 2 -22 12 -31 15 -16 15 -60
1 -154 -16 -97 -19 -126 -18 -132 1 -5 -2 -8 -6 -8 -5 0 -18 19 -30 42 l-21
43 24 13 c26 13 41 51 31 78 -6 15 -9 14 -31 -6 -14 -13 -26 -35 -26 -49 -2
-23 -2 -23 -6 -4 -2 12 10 53 26 92 32 72 41 110 18 76 -8 -11 -27 -50 -42
-87 -16 -38 -33 -68 -38 -68 -7 0 -37 60 -37 74 0 3 6 3 13 1 19 -7 54 28 62
63 6 29 4 32 -18 32 -28 0 -40 -12 -55 -55 -11 -31 -13 -25 -16 32 -1 18 -6
36 -10 40 -5 5 -6 -18 -4 -49 2 -32 2 -58 -1 -58 -3 0 -15 7 -25 15 -24 18
-50 19 -64 2 -23 -27 39 -64 81 -48 20 8 26 5 40 -19 22 -36 23 -57 3 -41 -19
16 -58 -3 -50 -23 7 -19 23 -24 57 -21 43 5 83 -65 94 -164 5 -49 1 -67 -22
-119 -28 -64 -59 -103 -48 -63 5 20 -11 51 -27 51 -16 0 -18 -42 -2 -69 15
-28 15 -29 -23 -82 -22 -30 -52 -67 -67 -83 l-26 -30 -10 35 c-8 33 -8 34 30
47 26 10 38 20 38 33 0 25 -21 24 -48 -1 -45 -42 -8 59 55 152 38 55 47 78 51
123 5 64 -23 133 -83 200 -95 106 -100 115 -100 158 0 31 -4 42 -15 42 -9 0
-16 -11 -18 -26 -3 -29 38 -97 101 -167 45 -51 75 -112 83 -174 6 -48 -4 -71
-71 -163 l-40 -55 -5 73 c-6 89 -5 92 31 107 16 7 26 16 24 20 -3 5 4 12 16
15 11 4 18 13 16 20 -3 7 -1 17 4 22 5 5 3 17 -6 31 -13 18 -19 20 -40 10 -14
-6 -25 -17 -25 -24 0 -6 -7 -15 -16 -18 -8 -3 -13 -10 -10 -15 3 -5 2 -20 -3
-33 -7 -19 -12 -5 -30 74 -13 53 -31 108 -42 121 -10 14 -30 48 -45 77 -31 61
-41 61 -20 -1 13 -37 13 -46 2 -54 -7 -6 -16 -20 -20 -33 -9 -26 -15 -27 -42
-7 -24 18 -38 19 -31 1 3 -8 -5 -18 -20 -25 -14 -7 -23 -14 -20 -18 3 -3 -1
-12 -9 -20 -8 -9 -14 -23 -12 -32 4 -18 48 -29 48 -12 0 6 5 11 11 11 14 0 33
20 42 43 7 18 8 18 38 0 36 -21 99 -94 99 -114 -1 -10 -4 -9 -11 4 -6 9 -15
15 -20 11 -6 -3 -13 3 -15 14 -5 18 -23 21 -91 13 -7 0 -13 -14 -13 -30 0 -21
6 -30 21 -34 13 -4 18 -10 14 -18 -6 -9 -1 -10 18 -5 14 3 29 1 32 -4 4 -7 11
-7 18 -2 19 15 67 24 67 12 0 -16 2 -23 11 -47 11 -30 -4 -37 -26 -13 -18 20
-69 27 -79 11 -18 -28 40 -65 79 -51 11 4 23 6 26 4 6 -3 1 -90 -6 -112 -7
-19 -25 -5 -25 19 0 11 -4 18 -9 15 -5 -3 -12 5 -15 19 -4 15 -14 25 -24 25
-9 0 -23 9 -30 20 -26 43 -121 74 -157 52 -22 -14 -35 -9 -36 11 -2 53 -29
177 -39 177 -4 0 -2 -27 5 -60 7 -33 10 -60 6 -60 -10 0 -47 43 -54 63 -4 10
-12 15 -17 12 -6 -4 -16 -2 -23 3 -7 5 -26 8 -43 5 -28 -4 -31 -8 -30 -36 1
-17 7 -32 14 -35 6 -2 12 -10 12 -18 0 -8 10 -14 25 -14 14 0 25 -4 25 -10 0
-6 20 -8 49 -5 l50 5 9 -43 c8 -43 5 -77 -7 -77 -4 0 -38 20 -75 45 -88 59
-76 41 22 -33 88 -67 125 -88 192 -108 70 -21 76 -32 57 -106 -9 -35 -22 -80
-29 -101 l-14 -38 -33 41 c-18 23 -55 55 -81 71 l-47 29 15 46 c13 40 13 47 0
60 -15 15 -52 9 -43 -6 3 -5 1 -11 -4 -14 -6 -4 -6 -18 -1 -36 10 -35 8 -36
-25 -14 -25 17 -34 7 -14 -13 9 -9 7 -11 -8 -7 -26 7 -36 -8 -28 -39 6 -21 17
-31 68 -55 11 -6 8 37 -4 60 -11 20 -7 19 37 -7 53 -30 112 -82 82 -72 -10 4
-18 2 -18 -3 0 -6 5 -10 10 -10 6 0 10 -4 10 -10 0 -5 -18 -13 -40 -16 -24 -4
-40 -12 -40 -20 0 -8 -7 -14 -15 -14 -8 0 -15 -6 -15 -14 0 -8 -2 -20 -5 -28
-8 -20 33 -42 50 -28 8 7 19 9 24 6 6 -4 15 3 21 14 6 11 15 18 21 15 5 -4 9
2 9 12 0 10 7 26 14 36 13 17 17 13 52 -50 21 -37 60 -89 87 -115 51 -51 50
-54 -22 -48 -13 1 -21 -2 -18 -7 3 -4 -6 -13 -19 -20 -21 -10 -27 -8 -46 16
-40 46 -100 89 -185 130 -50 25 -83 47 -83 56 0 8 6 15 14 15 7 0 21 16 30 35
16 33 26 39 86 48 17 3 12 5 -15 7 -22 1 -44 3 -50 5 -5 1 -19 3 -30 4 -38 3
-47 15 -35 46 17 44 -15 96 -72 122 -23 10 -27 9 -32 -10 -7 -30 -13 -20 -21
38 -7 55 -36 128 -55 140 -6 4 -3 -10 8 -31 25 -49 33 -88 37 -169 2 -49 -1
-65 -11 -65 -25 0 -35 36 -22 83 6 24 8 51 5 60 -10 27 -37 20 -51 -14 -11
-27 -14 -28 -26 -14 -11 14 -11 21 3 45 11 18 14 31 7 35 -5 3 -10 15 -10 26
0 11 -4 18 -9 14 -5 -3 -12 3 -15 12 -3 10 -17 23 -30 29 -21 10 -26 8 -34
-10 -13 -26 -9 -69 6 -74 7 -2 9 -8 6 -13 -3 -6 1 -21 10 -34 18 -28 20 -39 6
-30 -6 4 -26 1 -46 -5 -27 -9 -34 -17 -32 -33 2 -11 10 -21 18 -23 8 -2 27 -6
43 -9 21 -4 33 0 52 19 l24 25 32 -41 c45 -56 81 -110 76 -114 -2 -2 -15 2
-30 9 -20 9 -27 20 -27 40 0 15 -9 36 -20 47 -20 20 -60 27 -60 11 0 -25 20
-58 44 -71 l27 -14 -63 -18 c-81 -22 -78 -23 -78 10 0 31 -56 84 -94 89 -19 3
-25 -2 -31 -24 -4 -17 -2 -29 4 -31 6 -2 11 -9 11 -15 0 -13 54 -52 85 -61 11
-3 43 0 70 8 56 14 105 13 132 -4 16 -10 15 -10 -5 -5 -22 6 -52 -13 -52 -33
0 -6 -4 -12 -9 -14 -4 -2 -12 -13 -15 -26 -6 -17 -3 -24 16 -31 21 -9 21 -10
3 -12 -11 -1 -24 -1 -30 1 -5 1 -23 2 -40 2 -16 0 -38 5 -47 10 -11 5 -18 5
-18 -1 0 -5 -8 -12 -18 -15 -9 -3 -23 -15 -30 -27 -11 -18 -11 -24 4 -40 11
-12 24 -17 36 -13 11 3 18 0 18 -7 0 -8 7 -6 19 5 11 10 25 15 30 11 6 -3 11
1 11 9 0 22 54 56 89 56 23 0 29 -4 24 -16 -3 -8 -12 -13 -20 -10 -9 4 -17 -1
-20 -13 -3 -11 -14 -22 -25 -24 -14 -4 -19 -11 -14 -23 3 -9 2 -22 -4 -29 -6
-8 -6 -20 3 -39 9 -20 17 -25 32 -21 11 4 26 7 34 7 8 1 16 10 19 20 2 10 11
18 19 18 12 0 14 7 10 29 -4 17 -2 31 4 33 6 2 11 18 11 36 1 32 1 32 52 31
43 0 48 -2 32 -12 -53 -34 -61 -44 -47 -60 17 -22 56 -4 71 33 9 22 16 27 33
22 21 -5 97 -49 97 -55 0 -2 -24 -3 -53 -1 -62 3 -151 -26 -182 -57 l-20 -21
22 11 c32 16 36 14 13 -9 -20 -20 -25 -45 -14 -75 6 -14 9 -14 30 6 19 17 22
29 18 59 -5 36 -4 38 31 50 84 28 172 10 232 -48 34 -34 118 -152 107 -152 -4
0 -55 12 -114 26 l-106 26 -2 37 c-2 20 -7 38 -12 39 -6 2 -10 11 -10 20 0 19
-42 42 -77 42 -20 0 -23 -4 -20 -35 1 -19 5 -35 10 -35 4 0 7 -6 7 -14 0 -8
10 -18 22 -22 12 -3 28 -13 36 -20 11 -12 8 -14 -25 -15 -167 -4 -205 8 -305
94 -46 39 -85 73 -88 76 -3 3 -23 22 -44 41 -39 35 -39 35 10 -29 63 -82 129
-141 198 -177 l55 -29 -41 -12 c-49 -14 -54 -12 -63 26 -4 20 -16 33 -36 41
-16 7 -32 10 -36 7 -13 -14 10 -59 40 -77 17 -11 25 -20 17 -21 -8 0 -23 -2
-32 -4 -10 -2 -30 6 -45 18 -32 25 -50 29 -75 16 -14 -8 -16 -14 -8 -29 16
-31 67 -34 160 -10 47 12 101 23 120 25 19 2 58 6 87 9 49 6 52 5 73 -24 l21
-30 -45 -1 c-25 -1 -49 -2 -53 -3 -5 -1 -35 -6 -67 -10 -33 -4 -55 -11 -49
-14 5 -4 12 -15 16 -25 4 -9 18 -22 32 -27 14 -5 25 -11 25 -12 0 -2 -19 -4
-43 -4 -128 -4 -241 -116 -246 -246 -1 -11 -9 -18 -22 -18 -34 0 -60 -20 -76
-57 -16 -39 -8 -53 29 -53 10 0 22 -9 28 -21 8 -15 15 -17 24 -10 9 7 16 7 24
-1 9 -9 16 -8 28 4 20 20 11 68 -13 68 -14 0 -15 9 -10 64 7 77 35 141 82 186
30 29 35 31 35 14 0 -10 -9 -25 -21 -32 -15 -10 -18 -16 -10 -26 8 -10 7 -17
-4 -26 -17 -14 -20 -40 -4 -40 6 0 9 -10 7 -23 -2 -16 6 -28 31 -45 33 -23 35
-23 48 -6 7 10 13 21 13 26 0 4 7 8 16 8 11 0 14 6 9 20 -4 12 -1 27 5 35 9
10 8 19 -4 38 -9 13 -13 27 -10 30 4 4 2 12 -3 19 -6 7 -13 23 -16 36 -4 18 0
25 19 33 14 5 37 9 51 9 24 0 25 -1 10 -17 -14 -17 -21 -42 -18 -70 2 -23 32
-14 62 19 23 26 29 29 29 14 0 -10 9 -34 21 -52 15 -25 18 -42 13 -69 -3 -19
-10 -37 -13 -40 -13 -8 1 -63 20 -81 15 -14 21 -14 34 -4 39 32 -17 -78 -62
-124 -58 -58 -129 -80 -255 -81 -92 0 -103 -2 -75 -11 34 -12 152 -12 202 0
24 5 20 1 -17 -19 -76 -40 -137 -57 -238 -65 -52 -4 -87 -8 -77 -9 14 -1 17
-6 11 -23 -3 -13 -7 -23 -8 -23 -46 -18 -58 -27 -48 -37 9 -9 7 -16 -5 -30
-15 -17 -15 -20 -3 -28 8 -6 11 -10 7 -10 -4 0 -3 -9 3 -20 11 -21 44 -27 55
-10 3 5 12 7 20 3 10 -3 15 1 15 12 0 9 9 19 20 22 14 4 20 14 20 34 0 16 5
29 10 29 6 0 10 13 10 29 0 36 14 47 75 61 28 5 59 12 71 15 16 4 20 0 19 -16
-1 -12 -9 -26 -19 -31 -13 -7 -15 -13 -6 -23 7 -8 9 -19 5 -25 -4 -6 1 -20 11
-31 18 -20 44 -26 44 -10 0 5 9 12 19 16 11 3 18 12 15 20 -3 7 -1 16 5 19 6
4 9 28 6 60 l-5 53 42 28 c24 15 53 39 65 53 26 31 30 28 38 -18 10 -59 25
-97 46 -116 20 -18 20 -18 0 30 -23 51 -28 100 -10 94 6 -2 10 -7 9 -12 -2
-12 46 -35 67 -32 48 7 -1 85 -54 86 -12 0 -24 4 -28 9 -7 12 28 106 54 145
l20 30 7 -30 c11 -46 71 -87 76 -51 6 48 3 69 -8 74 -8 3 -14 11 -14 18 0 7
-7 15 -15 19 -17 6 -19 33 -5 56 7 11 11 8 20 -15 16 -46 29 -67 58 -101 155
-179 162 -193 102 -224 -23 -12 -39 -24 -36 -28 4 -3 -7 -11 -24 -19 -27 -11
-29 -15 -21 -32 9 -16 7 -21 -8 -26 -10 -3 -26 -14 -36 -24 -16 -18 -16 -20 5
-31 20 -11 20 -13 6 -29 -20 -22 -21 -41 -1 -41 8 0 15 -8 15 -19 0 -30 24
-45 52 -30 13 6 26 18 31 25 4 7 14 11 22 8 12 -5 15 2 15 30 0 29 4 36 20 36
23 0 25 15 6 50 -12 21 -12 26 3 36 13 10 14 15 4 25 -15 16 -17 55 -3 64 15
9 12 62 -6 96 -20 40 -10 49 21 19 21 -20 25 -21 25 -6 0 15 2 15 30 1 27 -14
31 -14 36 0 3 8 16 15 28 15 15 0 25 9 34 32 12 34 3 58 -24 58 -8 0 -14 4
-14 10 0 5 -13 7 -30 3 -21 -4 -30 -2 -30 7 0 8 -9 5 -24 -9 -14 -13 -29 -20
-34 -17 -5 3 -16 -1 -23 -10 -33 -40 -51 -34 -106 34 -59 71 -70 90 -68 112 1
8 3 27 3 41 1 14 9 34 17 45 14 18 15 18 6 -7 -10 -28 -4 -79 10 -79 5 0 9 -6
9 -14 0 -19 37 -27 50 -11 18 22 7 79 -17 90 -12 5 -26 19 -32 31 -8 18 -6 23
12 28 83 21 307 -202 375 -374 12 -30 26 -77 31 -105 9 -47 7 -179 -3 -242
-40 -245 -49 -271 -101 -303 -18 -11 -79 -32 -136 -48 l-104 -27 109 -3 c64
-2 122 2 140 9 29 10 67 18 111 22 14 1 25 -9 39 -37 l19 -38 30 32 c27 28 34
31 66 25 87 -16 124 -17 162 -5 34 12 44 11 75 -3 26 -13 61 -17 142 -16 106
1 107 1 57 13 -62 15 -143 54 -223 105 -58 38 -62 43 -81 108 -60 202 -80 399
-54 522 25 119 90 229 166 282 27 19 30 20 16 3 -9 -10 -20 -29 -23 -41 -6
-19 -2 -25 21 -34 20 -7 29 -7 31 1 3 8 8 8 17 0 10 -9 16 -6 25 9 6 12 17 21
25 21 8 0 12 6 9 14 -3 8 -1 17 5 21 20 12 12 43 -11 47 -13 3 7 6 43 9 l67 4
-21 -30 c-12 -16 -26 -33 -32 -37 -12 -7 -12 -50 0 -87 8 -28 28 -27 60 3 23
21 25 29 21 80 -5 59 -1 64 28 43 24 -17 22 -63 -3 -119 -21 -46 -24 -48 -61
-48 -23 0 -40 -5 -40 -11 0 -6 -6 -9 -13 -6 -8 3 -20 1 -28 -4 -12 -8 -12 -10
0 -18 11 -7 6 -10 -20 -13 -28 -2 -34 -7 -32 -24 2 -16 -5 -24 -22 -28 -23 -6
-25 -10 -19 -49 8 -54 17 -63 49 -49 21 10 25 9 25 -5 0 -14 4 -13 24 6 13 12
36 25 52 30 16 4 29 14 29 22 0 8 10 15 23 17 18 3 22 10 24 45 0 23 0 50 0
60 -1 10 5 28 14 40 16 22 16 22 11 -6 -2 -15 -1 -30 3 -32 5 -3 6 -14 3 -25
-3 -12 1 -22 11 -26 9 -3 14 -10 11 -14 -6 -10 7 -20 35 -25 25 -5 40 21 38
69 -1 25 -7 37 -20 42 -10 3 -16 9 -13 13 2 5 -7 19 -20 31 -28 26 -31 48 -12
74 12 16 14 15 35 -7 13 -14 29 -44 36 -68 12 -42 13 -64 1 -134 -4 -27 -3
-28 7 -10 17 28 13 143 -6 185 -29 64 -82 109 -153 130 -24 7 -43 16 -43 19 0
4 44 25 97 49 l97 42 24 -26 c14 -14 30 -23 39 -20 8 3 17 6 19 6 3 0 0 9 -6
20 -6 11 -17 20 -25 20 -7 0 -17 5 -20 10 -8 12 70 49 94 45 9 -2 22 -4 30 -4
12 -1 12 -4 -1 -18 -8 -10 -18 -26 -21 -35 -4 -10 -11 -18 -16 -18 -10 0 -8
-66 3 -92 15 -34 89 23 79 61 -3 11 -1 21 4 21 15 0 15 -70 -1 -153 -18 -91
-60 -185 -112 -245 -20 -24 -46 -62 -58 -85 -16 -32 -28 -43 -48 -45 -20 -2
-28 -9 -28 -23 0 -10 -6 -19 -14 -19 -22 0 -38 -24 -24 -38 9 -9 7 -15 -7 -26
-18 -13 -18 -15 -2 -30 9 -10 17 -24 17 -33 0 -11 6 -14 23 -8 12 3 32 9 45
12 13 3 22 13 22 24 0 12 7 19 19 19 16 0 18 6 14 35 -3 21 0 35 6 35 7 0 10
18 7 50 -3 49 -1 54 61 140 60 85 86 114 63 71 -14 -26 -13 -41 3 -41 9 0 12
-11 9 -34 -4 -31 -2 -34 17 -29 16 4 21 1 21 -15 0 -29 76 -30 85 -1 4 10 4
23 1 28 -4 5 0 11 6 14 10 3 9 8 -2 22 -8 10 -14 26 -12 35 2 12 -6 20 -23 24
-18 5 -25 12 -21 21 3 9 0 15 -8 15 -7 0 -22 10 -34 23 -21 23 -21 38 7 142 0
3 1 13 1 23 0 11 7 6 20 -16 11 -18 40 -47 65 -64 41 -29 44 -35 41 -67 -2
-20 -7 -44 -11 -55 -5 -11 -3 -21 6 -26 7 -5 10 -12 7 -16 -4 -4 4 -16 18 -26
24 -20 26 -20 45 -2 11 10 18 23 15 30 -2 6 0 16 6 22 6 6 6 12 -1 16 -6 4
-11 16 -11 26 0 10 -8 24 -17 29 -10 6 -13 11 -8 11 6 0 44 -24 85 -53 82 -58
149 -135 129 -148 -7 -4 -19 -5 -27 -2 -8 3 -17 0 -22 -7 -6 -9 -12 -9 -29 -1
-19 10 -22 9 -31 -15 -7 -18 -15 -24 -26 -20 -9 3 -26 3 -39 0 -20 -5 -22 -10
-15 -29 7 -19 4 -24 -16 -34 -15 -6 -22 -16 -18 -22 4 -7 7 -28 8 -48 1 -31 4
-36 26 -37 14 -1 33 2 42 7 11 6 18 5 22 -4 5 -12 31 12 39 37 3 8 9 7 20 -2
13 -11 17 -10 26 7 6 11 11 24 10 28 -4 23 2 35 16 29 11 -4 15 1 15 19 0 27
28 61 41 48 14 -15 49 -113 49 -139 0 -21 4 -24 20 -19 11 3 20 2 20 -3 0 -12
62 -24 84 -16 21 8 20 21 -4 41 -11 10 -20 22 -20 28 0 6 -15 11 -32 12 -18 0
-38 1 -44 2 -6 1 -16 20 -23 44 -7 23 -26 66 -42 96 -17 29 -28 55 -26 57 4 5
98 -15 106 -22 2 -2 -7 -12 -19 -22 l-23 -19 29 -10 c41 -15 74 0 72 31 -1 13
-5 24 -8 24 -3 0 -7 0 -10 2 -3 1 -16 3 -30 6 -50 8 -149 48 -143 57 3 5 13 7
23 4 11 -3 21 1 24 9 3 8 9 14 13 13 22 -4 32 3 27 16 -4 8 -1 15 5 15 6 0 11
11 11 25 0 21 -5 25 -31 25 -34 0 -69 -16 -69 -31 0 -5 -10 -23 -21 -38 l-21
-29 -79 57 c-43 31 -78 62 -79 70 0 11 4 11 18 -2 21 -19 42 -22 42 -7 0 6 16
8 41 4 36 -6 40 -5 37 12 -2 13 3 19 16 19 16 0 41 41 45 76 1 9 -49 30 -59
24 -4 -3 -11 2 -14 11 -6 15 -8 15 -26 -1 -15 -14 -23 -15 -33 -6 -16 12 -28
2 -40 -32 -4 -10 -12 -15 -17 -12 -6 4 -26 -9 -44 -28 l-33 -36 -35 24 c-20
13 -38 31 -41 39 -5 13 1 15 38 11 25 -2 45 0 45 6 0 5 7 9 15 9 8 0 20 10 26
22 10 18 8 24 -7 35 -11 8 -27 12 -36 9 -10 -2 -20 0 -23 4 -6 10 170 70 210
71 l30 1 -29 9 c-38 11 -78 4 -168 -27 -80 -28 -131 -26 -148 6 -15 28 -12 32
11 20 11 -7 23 -9 26 -6 3 3 14 1 24 -5 14 -7 21 -6 25 4 3 9 15 12 34 9 23
-3 30 0 30 12 0 9 8 16 19 16 13 0 20 10 24 37 7 42 7 42 -19 46 -10 1 -25 6
-32 11 -7 4 -19 2 -28 -5 -11 -9 -18 -9 -26 -1 -7 7 2 14 33 23 24 7 48 16 53
20 14 12 -62 -1 -120 -21 -53 -18 -63 -12 -38 21 11 15 11 99 0 117 -8 13 -71
-1 -71 -16 0 -7 -6 -17 -14 -21 -8 -5 -12 -18 -8 -30 3 -12 1 -19 -4 -15 -19
11 -9 -65 11 -84 20 -19 19 -19 -83 -70 -57 -29 -106 -52 -109 -52 -3 0 -3 11
0 25 2 14 8 25 13 25 11 0 3 60 -9 72 -14 14 -55 -1 -48 -17 3 -8 0 -15 -6
-17 -8 -3 -7 -16 3 -43 7 -22 14 -44 14 -49 0 -5 -32 -17 -72 -26 l-72 -17 34
66 c38 76 72 111 135 139 69 30 73 30 97 1 15 -18 30 -25 42 -22 25 6 17 29
-16 47 l-25 13 35 22 c33 20 73 68 64 77 -2 2 -12 -5 -22 -16 -10 -11 -22 -20
-26 -20 -11 0 -5 25 9 43 8 10 9 17 3 21 -6 4 -8 12 -6 19 3 7 -4 23 -14 36
-16 21 -20 22 -39 10 -12 -8 -22 -22 -22 -31 0 -10 -5 -18 -11 -18 -5 0 -7 -5
-3 -11 4 -7 7 -20 8 -30 1 -9 11 -29 23 -42 l21 -25 -61 -28 c-83 -37 -150
-64 -161 -64 -9 0 1 101 15 137 5 13 14 20 22 17 7 -2 26 7 41 21 15 14 24 25
20 25 -3 0 -2 6 3 13 17 22 10 60 -11 63 -36 5 -72 -46 -85 -121 -7 -38 -16
-76 -21 -84 -4 -9 -11 -40 -15 -68 -8 -68 -20 -107 -39 -135 -18 -25 -22 -8
-6 23 9 16 7 21 -17 30 -15 6 -31 15 -35 21 -5 9 -11 8 -22 -1 -12 -10 -19
-11 -30 -2 -11 9 -18 7 -34 -13 -10 -14 -22 -22 -26 -19 -3 4 -18 -4 -34 -18
l-27 -24 21 25 c24 27 67 111 79 150 11 41 47 113 72 146 55 74 190 113 370
107 131 -4 153 -12 153 -56 0 -21 7 -41 19 -51 18 -17 20 -16 26 3 3 12 3 26
-1 33 -5 8 2 6 16 -4 15 -9 24 -24 22 -35 -8 -53 -3 -91 14 -111 24 -29 52
-28 58 1 8 42 5 67 -9 67 -7 0 -16 7 -19 16 -9 23 -7 28 7 16 6 -5 36 -18 64
-27 29 -10 50 -21 47 -26 -10 -17 -13 -99 -3 -99 6 0 10 -10 9 -22 -4 -39 0
-50 13 -45 6 2 17 -5 23 -16 7 -13 24 -21 48 -23 34 -3 36 -1 36 26 0 16 5 32
11 35 7 5 5 13 -6 25 -8 9 -13 24 -9 33 4 12 -2 20 -20 27 -14 5 -26 16 -26
24 0 7 -9 16 -21 19 -29 8 -19 31 17 38 17 4 3 6 -36 6 -47 -1 -74 4 -98 18
-17 11 -32 22 -32 25 0 3 17 12 38 20 44 16 89 47 97 68 4 11 -1 10 -22 -4
-58 -39 -115 -63 -131 -56 -13 5 -11 8 11 10 15 2 27 8 27 13 0 5 9 9 21 9 15
0 19 5 15 15 -3 8 -1 15 4 15 6 0 10 11 10 25 0 21 -5 25 -27 25 -29 -1 -63
-20 -63 -36 0 -5 -9 -20 -19 -33 l-19 -25 -30 26 -30 25 37 12 c55 16 83 42
110 99 23 49 24 49 42 31 20 -20 54 -25 63 -10 8 12 -25 39 -54 43 -20 2 -31
-6 -54 -37 -38 -52 -63 -74 -103 -91 -39 -17 -97 -19 -87 -3 3 6 19 9 35 5 24
-5 29 -2 29 14 0 14 7 20 24 20 43 0 56 10 50 36 -4 17 -2 24 9 24 16 0 30 24
19 34 -3 4 -6 21 -6 39 l-1 32 -57 0 c-48 1 -58 -3 -66 -19 -5 -12 -19 -21
-33 -21 -21 0 -24 -4 -21 -32 3 -28 0 -33 -18 -33 -12 0 -19 -4 -15 -9 3 -6
-2 -28 -12 -50 -14 -32 -22 -40 -40 -39 -23 2 -31 22 -14 33 6 3 31 40 56 83
26 42 63 96 82 120 34 41 36 42 59 27 28 -18 50 -19 60 -3 9 15 -23 38 -46 33
-28 -5 -15 16 30 48 21 15 44 41 52 57 9 22 18 28 31 24 39 -12 72 -11 94 3
25 17 30 38 12 49 -19 12 -68 14 -74 4 -12 -20 -35 -10 -35 15 0 14 -5 25 -11
25 -5 0 -8 4 -4 9 3 5 -5 21 -18 35 -26 27 -64 29 -59 2 2 -9 -2 -16 -9 -16
-8 0 -8 -4 1 -15 7 -8 10 -21 7 -29 -6 -15 35 -66 53 -66 20 0 10 -26 -23 -58
-32 -31 -55 -43 -42 -22 18 28 13 69 -11 95 -13 14 -28 23 -34 20 -13 -8 -31
-78 -22 -85 4 -3 16 -18 26 -34 l18 -29 -34 -34 -35 -35 -1 88 c-1 71 -6 97
-25 136 l-24 48 24 0 c12 0 23 4 23 9 0 5 9 11 20 14 11 3 20 12 20 20 0 8 6
17 14 20 19 7 14 73 -7 94 -13 13 -17 13 -41 -2 -14 -10 -26 -24 -26 -31 0 -8
-7 -14 -15 -14 -11 0 -12 -5 -5 -25 6 -16 6 -25 0 -25 -6 0 -9 -3 -9 -7 1 -5
1 -19 0 -32 -1 -20 -3 -22 -17 -10 -11 9 -10 3 5 -22 26 -44 49 -143 44 -194
-4 -50 -28 -122 -53 -160 l-20 -30 0 28 c0 16 -5 37 -10 47 -11 20 -2 43 29
83 10 12 11 17 2 17 -8 0 -4 10 8 26 15 19 18 30 11 39 -6 7 -7 20 -4 30 4 9
3 20 -2 24 -5 3 -17 18 -27 33 l-17 27 -35 -20 c-30 -18 -34 -25 -28 -46 4
-18 2 -24 -6 -19 -18 12 -25 -23 -7 -43 12 -14 13 -20 3 -30 -9 -10 -8 -15 7
-27 26 -18 14 -29 -16 -14 -19 10 -18 7 9 -21 64 -68 80 -148 39 -196 l-25
-28 6 25 c3 14 9 30 13 35 8 11 1 40 -17 70 -9 16 -14 18 -24 7 -16 -15 -46
-16 -55 0 -4 6 0 16 9 23 19 13 23 45 7 45 -6 0 -15 11 -20 25 -14 37 -39 43
-60 15 -10 -13 -22 -20 -29 -16 -8 5 1 23 27 54 69 83 86 136 53 166 -16 15
-20 15 -31 1 -13 -15 -10 -26 15 -61 14 -19 13 -23 -8 -45 -32 -33 -72 -66
-64 -53 7 12 13 43 23 119 7 59 18 81 44 95 19 10 27 49 13 63 -3 4 -17 0 -31
-9 -13 -8 -25 -14 -26 -12 -1 2 -10 28 -19 59 -32 104 -18 184 39 232 24 20
32 35 30 50 -3 12 -5 25 -5 30 -2 18 -51 -27 -51 -47 0 -11 -12 -48 -25 -81
-14 -33 -25 -69 -25 -79 0 -17 -4 -16 -32 11 -44 41 -90 63 -133 63 -19 0 -35
5 -35 10 0 6 14 10 30 10 18 0 33 6 36 15 4 8 12 15 19 15 17 0 21 6 29 50 6
35 5 36 -36 47 -27 7 -47 8 -54 2 -6 -5 -19 -7 -28 -3 -10 4 -19 -2 -27 -20
-7 -14 -20 -26 -31 -26 -10 0 -18 -7 -18 -15 0 -9 -7 -18 -15 -21 -24 -9 -17
-34 11 -45 15 -5 29 -7 32 -4 3 3 15 -1 26 -8 12 -8 41 -17 66 -21 49 -8 90
-30 90 -48 0 -9 -3 -9 -12 0 -18 18 -69 14 -103 -8 -22 -15 -41 -18 -77 -15
-28 3 -48 1 -48 -5 0 -6 -6 -10 -14 -10 -7 0 -21 -11 -30 -25 -16 -25 -16 -27
6 -45 16 -13 27 -15 35 -8 9 7 15 6 19 -6 5 -14 10 -13 34 7 16 12 29 27 29
32 1 18 60 63 90 70 17 4 44 0 65 -9 39 -16 48 -36 17 -36 -51 0 -22 -53 30
-56 47 -2 46 -2 54 -21 22 -58 4 -237 -31 -303 -13 -25 -13 -25 -14 12 0 27
-6 40 -21 48 -25 14 -29 11 -33 -26 -2 -20 4 -36 21 -51 27 -26 21 -44 -30
-80 -32 -23 -45 -24 -31 -1 20 32 7 89 -26 115 -13 9 -11 15 13 38 77 77 88
138 46 247 -26 67 -33 76 -64 85 -31 10 -35 9 -35 -7 0 -34 12 -49 46 -60 38
-13 52 -32 59 -84 3 -27 0 -36 -10 -36 -8 0 -14 8 -13 18 4 50 0 55 -42 49
-22 -3 -43 -1 -46 5 -4 6 -16 -4 -26 -21 -16 -24 -23 -29 -33 -21 -17 14 -30
-5 -27 -42 2 -22 -2 -28 -18 -28 -14 0 -21 -6 -19 -17 5 -58 -13 -52 -29 10
-9 33 -8 37 8 37 21 0 33 23 34 67 1 27 -1 30 -17 21 -10 -5 -24 -23 -31 -39
l-12 -28 -18 29 c-9 17 -17 40 -16 53 3 35 1 43 -17 64 -28 32 -60 38 -68 13
-8 -25 27 -86 54 -93 12 -3 27 -26 41 -63 32 -85 38 -141 24 -210 -13 -65 -73
-214 -86 -214 -12 0 -10 18 2 25 11 7 7 34 -12 71 -8 18 -4 29 26 68 43 56 65
120 49 144 -24 38 -54 -1 -36 -48 9 -25 8 -34 -7 -52 -10 -13 -21 -21 -24 -18
-3 3 -14 34 -25 68 l-19 63 29 6 c29 6 74 54 62 67 -15 14 -53 4 -71 -19 -24
-30 -32 -31 -32 -5 0 10 11 30 25 44 26 26 33 60 14 71 -14 9 -44 -19 -46 -42
-1 -10 -4 -29 -6 -43 -2 -14 5 -65 17 -115 13 -49 20 -99 18 -112 -6 -33 -48
-71 -115 -105 l-58 -29 32 58 c30 55 34 58 64 55 36 -4 68 20 63 47 -5 23 -49
16 -71 -12 -17 -20 -18 -20 -12 -2 18 51 26 88 39 190 8 61 22 133 30 160 20
65 67 137 114 172 37 28 40 32 49 90 7 42 -11 67 -38 52 -24 -12 -25 -60 -3
-94 9 -14 12 -25 6 -25 -14 0 -78 -69 -107 -115 l-25 -40 5 60 c3 38 12 70 25
87 11 15 20 31 20 37 0 5 7 12 16 15 10 4 13 13 9 25 -3 11 0 29 7 41 11 18
11 23 -5 31 -13 8 -15 14 -7 30 9 16 7 21 -14 28 -13 6 -27 15 -31 20 -10 18
-20 13 -38 -19z m420 -592 c-18 -32 -53 -63 -132 -117 -103 -71 -107 -72 -101
-45 3 16 8 42 10 58 3 16 7 30 8 32 2 2 31 5 63 7 45 4 61 9 63 21 3 13 33 22
45 14 2 -2 11 3 21 11 13 11 14 17 4 28 -9 11 -9 16 3 24 34 22 41 9 16 -33z
m-907 -80 c0 -4 -6 -8 -13 -8 -19 0 -18 -62 2 -77 24 -18 -3 -16 -42 3 -45 23
-48 34 -21 61 13 13 24 36 24 50 l0 26 25 -23 c14 -13 25 -27 25 -32z m828
-50 c-17 -33 -18 -61 0 -80 8 -10 12 -18 7 -18 -4 0 0 -11 9 -25 16 -24 15
-25 -35 -72 -28 -26 -62 -67 -76 -90 -14 -24 -29 -43 -34 -43 -13 0 -11 16 4
28 8 7 11 25 9 46 -4 33 -6 35 -36 32 -20 -2 -32 -10 -34 -21 -3 -11 -10 -15
-24 -12 -13 4 -18 1 -15 -7 3 -7 1 -19 -3 -27 -7 -11 -10 -10 -15 3 -9 24 67
167 113 210 28 28 121 92 140 97 1 1 -3 -9 -10 -21z m192 -107 c-6 -12 -18
-21 -27 -21 -12 0 -14 -7 -10 -30 5 -21 2 -32 -10 -39 -15 -8 -15 -12 2 -47
21 -46 35 -60 61 -67 15 -4 14 -5 -6 -6 -14 -1 -47 -8 -73 -16 -48 -14 -48
-14 -41 8 3 12 10 27 15 33 12 15 -9 84 -26 84 -41 0 -59 -69 -29 -115 18 -28
15 -36 -27 -66 l-30 -21 6 24 c3 13 0 31 -9 43 -14 19 -14 19 -26 -7 -9 -19
-10 -35 -2 -57 10 -27 4 -42 -53 -158 -54 -111 -73 -138 -136 -200 -40 -40
-75 -70 -78 -68 -6 6 51 86 106 150 59 67 98 152 117 253 20 108 55 170 135
240 36 31 84 74 106 94 41 39 59 33 35 -11z m-870 -47 l0 -55 -30 16 c-16 8
-33 15 -37 15 -10 0 -11 62 -1 76 4 6 21 9 38 6 29 -4 30 -6 30 -58z m331 7
c-9 -6 -10 -11 -2 -15 6 -4 11 -16 11 -27 0 -10 10 -30 22 -44 21 -25 23 -25
36 -8 12 16 13 15 6 -12 -4 -16 -11 -40 -15 -52 -8 -21 -4 -67 7 -85 8 -12
-134 -10 -158 3 -12 7 -23 7 -27 2 -3 -5 -15 -13 -26 -17 -33 -12 0 -23 63
-20 55 4 56 3 32 -12 -27 -17 -50 -56 -50 -85 0 -23 38 -31 49 -11 5 10 13 16
17 14 3 -2 15 9 25 24 14 21 15 32 7 47 -10 19 -7 19 41 15 28 -3 54 -8 57
-11 10 -10 -43 -71 -85 -97 -22 -14 -39 -30 -36 -37 2 -7 -7 -21 -21 -32 -23
-18 -23 -20 -7 -29 14 -8 15 -13 4 -26 -11 -13 -9 -20 13 -42 24 -26 26 -27
44 -11 10 9 24 17 30 17 7 0 12 11 12 25 0 15 5 24 13 23 6 -2 10 4 9 12 -19
83 6 160 52 160 53 0 39 -85 -31 -178 -34 -45 -101 -92 -120 -85 -29 11 -90
120 -123 220 -56 170 -51 298 14 323 36 13 55 7 93 -31 34 -32 35 -32 28 -9
-4 14 -16 35 -27 47 l-20 21 29 16 c29 16 58 22 34 7z m686 -61 c1 -16 9 -40
18 -54 16 -24 15 -24 -17 -34 -56 -17 -97 -22 -103 -12 -4 6 5 14 19 20 14 5
26 15 26 21 0 7 8 18 18 25 14 11 14 15 3 23 -10 7 -8 12 10 25 13 9 24 16 24
16 0 0 1 -13 2 -30z m-1021 -33 c9 3 14 -2 14 -13 0 -11 16 -80 35 -154 19
-74 35 -138 35 -143 0 -11 -50 3 -91 25 -36 20 -36 21 -18 39 11 11 19 27 19
38 0 10 7 24 15 31 11 9 12 16 4 26 -6 7 -8 18 -4 24 3 5 0 17 -8 25 -9 8 -17
20 -20 27 -7 20 -63 -14 -59 -35 2 -10 -4 -17 -12 -17 -13 0 -14 -5 -6 -26 6
-14 8 -29 5 -34 -3 -5 2 -16 11 -25 9 -9 14 -18 11 -22 -3 -3 -15 10 -27 28
-18 29 -21 45 -16 99 2 36 9 77 15 92 9 24 13 26 47 18 20 -5 43 -6 50 -3z
m-516 -149 c0 -3 -17 -5 -37 -6 -21 -1 -50 -4 -65 -8 -17 -3 -28 -1 -28 5 0 6
7 11 15 11 8 0 15 7 15 16 0 8 5 12 10 9 6 -3 11 -1 11 4 1 6 3 16 4 21 1 6 3
15 4 20 1 9 71 -62 71 -72z m577 -204 c43 -28 73 -70 73 -101 -1 -13 -5 -10
-17 12 -9 17 -18 25 -20 18 -3 -7 -15 -10 -31 -7 -36 7 -63 -14 -56 -43 4 -13
13 -23 20 -23 8 0 14 -7 14 -16 0 -12 7 -15 25 -12 14 3 28 1 31 -4 3 -4 10
-6 15 -3 27 17 48 12 58 -13 15 -38 30 -142 20 -142 -20 0 -299 254 -299 271
0 4 8 5 19 2 11 -3 21 2 25 12 3 9 10 13 16 10 5 -3 17 10 27 29 9 20 22 36
28 36 6 0 29 -12 52 -26z m-290 -145 c66 -22 101 -43 182 -108 170 -136 221
-197 221 -263 0 -20 -4 -18 -39 16 -29 28 -41 49 -43 74 -4 44 -31 65 -50 39
-12 -16 -16 -15 -47 17 -19 20 -36 48 -37 63 -3 26 -12 36 -31 34 -5 -1 -9 -5
-9 -11 -1 -5 -2 -13 -3 -16 0 -3 -13 3 -28 14 -70 49 -208 102 -267 102 -23 0
-26 4 -26 36 l0 36 61 -7 c34 -4 86 -15 116 -26z m822 -85 c5 3 14 -1 20 -8 8
-10 23 -13 45 -9 19 3 36 1 40 -5 4 -6 -32 -23 -87 -41 -51 -17 -117 -47 -146
-67 -61 -41 -60 -38 22 68 51 67 62 76 78 67 11 -5 23 -8 28 -5z m147 -6 c-10
-6 -20 -7 -24 -3 -9 8 20 25 31 18 5 -3 2 -10 -7 -15z m-1051 -23 c33 -9 61
-18 64 -21 2 -2 -8 -17 -24 -34 l-28 -29 -25 19 c-13 11 -28 18 -32 15 -4 -3
-13 1 -19 9 -13 15 -71 7 -96 -14 -18 -15 1 -60 26 -60 9 0 19 -5 21 -11 3 -9
10 -9 26 0 17 9 22 9 22 0 0 -8 5 -7 16 2 41 34 41 13 1 -62 -41 -77 -63 -95
-61 -50 0 11 -19 44 -43 72 -67 78 -58 144 23 169 43 12 64 12 129 -5z m-215
-23 c0 -11 -38 -51 -44 -45 -11 11 -7 41 7 46 16 5 37 5 37 -1z m114 -267 c-4
-8 -7 -15 -9 -15 -2 0 -5 7 -9 15 -3 9 0 15 9 15 9 0 12 -6 9 -15z"/>
<path d="M1969 2077 c-21 -30 -32 -74 -19 -82 6 -4 9 -12 8 -18 -1 -7 4 -23
11 -36 l13 -23 27 30 c15 16 28 36 28 43 0 8 4 22 8 32 4 10 3 17 -4 17 -6 0
-11 7 -11 16 0 15 -27 43 -40 43 -3 0 -12 -10 -21 -22z"/>
<path d="M1590 1940 c0 -11 -5 -20 -11 -20 -6 0 -9 -6 -6 -14 3 -8 2 -16 -3
-18 -5 -2 -4 -14 3 -28 29 -57 86 -5 73 66 -6 28 -11 34 -31 34 -18 0 -25 -5
-25 -20z"/>
<path d="M1682 1850 c-15 -24 -16 -47 -2 -55 18 -11 40 15 40 46 0 34 -19 38
-38 9z"/>
<path d="M1174 1388 c-4 -6 4 -21 20 -35 44 -37 57 -29 34 22 -12 26 -42 34
-54 13z"/>
<path d="M1576 2839 c-7 -17 -11 -42 -8 -55 4 -24 5 -24 26 -7 35 29 46 46 46
70 0 18 -6 23 -25 23 -19 0 -29 -8 -39 -31z"/>
<path d="M944 2842 c-11 -26 -4 -55 19 -79 31 -34 47 -29 47 15 0 43 -6 55
-37 70 -17 10 -22 9 -29 -6z"/>
<path d="M1380 2848 c0 -5 -12 -13 -26 -19 -15 -5 -24 -12 -21 -16 4 -3 -2
-17 -13 -31 -11 -13 -17 -28 -15 -33 3 -4 32 -7 65 -7 45 1 60 4 60 15 0 8 4
11 10 8 5 -3 19 9 30 27 l20 33 -21 15 c-24 16 -89 22 -89 8z"/>
<path d="M1113 2783 c-13 -8 -23 -24 -23 -34 0 -11 -5 -19 -10 -19 -7 0 -7 -7
0 -21 7 -11 9 -27 6 -34 -2 -7 2 -19 10 -25 8 -7 14 -18 14 -25 0 -18 32 -28
42 -13 4 7 11 24 14 38 4 14 14 33 22 43 10 12 11 17 3 17 -7 0 -11 8 -9 18 3
19 -27 72 -40 71 -4 0 -17 -7 -29 -16z"/>
<path d="M683 2763 c-15 -5 -18 -63 -3 -63 6 0 10 -7 10 -15 0 -8 9 -15 19
-15 11 0 22 -4 25 -9 3 -5 21 -9 40 -9 42 0 53 21 27 47 -11 11 -22 29 -26 40
-3 12 -11 19 -16 15 -6 -3 -15 -1 -22 4 -13 10 -33 12 -54 5z"/>
<path d="M2887 2745 c-19 -14 -37 -95 -21 -95 12 0 56 30 66 44 4 6 8 23 8 39
0 31 -22 36 -53 12z"/>
<path d="M93 2710 c-7 -19 -8 -32 -1 -36 5 -3 7 -12 4 -20 -3 -7 4 -18 15 -24
11 -6 18 -14 15 -18 -2 -4 7 -15 20 -25 22 -17 24 -17 34 3 6 11 8 20 4 20 -3
0 -1 7 6 15 10 11 10 19 2 27 -6 6 -8 17 -5 24 7 19 -37 64 -62 64 -14 0 -24
-10 -32 -30z"/>
<path d="M2572 2723 c-6 -2 -10 -9 -6 -14 3 -5 1 -9 -4 -9 -6 0 -12 -20 -14
-45 -2 -25 -2 -45 0 -45 20 0 62 36 70 60 18 49 -1 71 -46 53z"/>
<path d="M2179 2708 c-1 -7 -2 -20 -3 -28 -1 -16 32 -60 46 -60 4 0 8 18 8 40
0 29 -5 42 -19 50 -25 13 -31 13 -32 -2z"/>
<path d="M904 2698 c-15 -23 -13 -88 2 -88 7 0 18 -9 24 -21 7 -11 14 -18 17
-15 3 3 12 -2 20 -10 12 -11 18 -12 29 -3 17 14 18 45 3 54 -6 4 -8 13 -5 21
6 15 -19 45 -53 63 -25 14 -28 14 -37 -1z"/>
<path d="M2747 2686 c-18 -19 -22 -33 -19 -65 5 -48 25 -70 45 -49 30 30 41
82 25 116 -14 28 -24 28 -51 -2z"/>
<path d="M349 2664 c-27 -33 27 -64 83 -48 42 12 45 30 9 48 -33 18 -77 18
-92 0z"/>
<path d="M2407 2674 c-3 -4 -19 -8 -34 -9 -16 -1 -34 -3 -40 -3 -14 -2 -14
-50 -1 -69 5 -6 5 -14 -2 -18 -17 -11 -11 -25 15 -35 18 -7 24 -16 22 -32 -2
-20 3 -23 36 -26 32 -3 37 -6 32 -23 -5 -16 -1 -19 25 -19 18 0 33 -6 36 -15
17 -42 61 8 48 53 -4 15 -8 41 -8 57 -1 22 -5 29 -18 27 -13 -2 -17 6 -20 35
-3 35 -6 38 -30 36 -16 -1 -28 2 -28 6 0 14 -26 42 -33 35z"/>
<path d="M1199 2637 c-9 -7 -20 -27 -24 -45 -4 -20 -11 -30 -18 -26 -7 4 -4
-2 6 -12 18 -19 19 -18 52 18 34 36 40 71 14 75 -8 2 -21 -3 -30 -10z"/>
<path d="M1863 2640 c-31 -13 -29 -38 3 -51 22 -8 33 -5 60 13 19 13 34 26 34
29 0 4 -14 9 -31 13 -38 7 -38 7 -66 -4z"/>
<path d="M640 2620 c0 -5 -3 -9 -7 -9 -21 3 -33 -3 -44 -22 -9 -17 -7 -25 12
-45 13 -14 28 -23 35 -20 6 2 16 0 22 -6 8 -8 15 -8 24 -1 7 6 30 13 51 17 20
4 37 12 37 19 0 19 -59 67 -74 61 -8 -3 -17 -1 -21 5 -8 14 -35 14 -35 1z"/>
<path d="M2910 2576 c-6 -6 -16 -11 -23 -11 -7 0 -13 -10 -15 -22 -2 -13 -10
-23 -19 -23 -9 0 -13 -6 -9 -15 3 -9 0 -25 -6 -35 -9 -14 -9 -23 -2 -30 14
-14 64 -2 64 15 0 8 9 10 25 7 20 -3 25 0 25 16 0 11 6 22 13 25 7 2 13 20 12
38 0 27 -5 34 -27 40 -16 4 -31 2 -38 -5z"/>
<path d="M1045 2556 c-14 -22 -15 -30 -4 -61 7 -19 16 -35 19 -35 17 0 39 59
32 85 -11 38 -27 42 -47 11z"/>
<path d="M20 2547 c0 -28 15 -47 54 -71 l29 -18 -5 47 c-6 50 -19 65 -55 65
-17 0 -23 -6 -23 -23z"/>
<path d="M246 2547 c-21 -20 -23 -27 -16 -66 11 -62 23 -69 54 -28 26 34 31
54 20 95 -8 28 -26 28 -58 -1z"/>
<path d="M417 2563 c-22 -22 12 -103 43 -103 6 0 13 0 18 0 25 0 -5 93 -33
104 -20 7 -20 7 -28 -1z"/>
<path d="M868 2538 c-19 -14 -21 -19 -10 -42 6 -14 18 -26 26 -26 8 0 16 -5
18 -11 3 -9 9 -9 25 -1 16 9 22 9 25 0 3 -9 8 -9 19 0 8 7 23 19 34 26 16 12
17 16 6 30 -7 9 -22 16 -33 16 -10 0 -21 6 -24 14 -7 18 -59 15 -86 -6z"/>
<path d="M674 2436 c-4 -10 -13 -14 -24 -11 -9 3 -27 -3 -39 -12 -21 -17 -22
-21 -9 -61 10 -33 18 -42 35 -42 16 0 23 -6 23 -20 0 -26 19 -34 53 -21 21 8
28 7 36 -6 8 -15 11 -15 35 1 15 9 31 14 37 10 17 -10 59 17 59 38 0 10 -5 18
-10 18 -6 0 -18 13 -28 29 -14 23 -21 27 -35 20 -13 -8 -17 -6 -17 4 0 8 -8
25 -18 37 -16 20 -19 21 -31 6 -13 -15 -16 -15 -37 5 -21 20 -24 20 -30 5z"/>
<path d="M3315 2440 c-3 -5 -13 -6 -21 -3 -10 4 -17 -2 -21 -16 -3 -11 -11
-21 -18 -21 -13 0 -31 -67 -21 -77 3 -3 18 -2 33 3 15 4 37 8 48 8 11 1 19 7
18 14 -2 6 3 12 10 12 8 0 18 15 24 34 10 31 8 35 -14 45 -29 13 -30 13 -38 1z"/>
<path d="M126 2414 c-11 -28 -7 -43 19 -69 36 -35 55 -33 55 8 0 53 -58 102
-74 61z"/>
<path d="M2432 2408 c-21 -23 -36 -74 -26 -89 9 -15 53 13 67 44 12 23 13 34
4 49 -15 23 -19 23 -45 -4z"/>
<path d="M9 2410 c-10 -7 -10 -12 1 -25 33 -40 83 -38 61 2 -12 23 -43 34 -62
23z"/>
<path d="M487 2389 c-8 -11 -13 -29 -10 -40 3 -11 0 -19 -8 -19 -8 0 -4 -8 9
-21 12 -11 20 -24 17 -30 -4 -5 2 -12 12 -16 10 -3 22 -12 26 -20 12 -19 47
-16 48 5 0 9 2 36 4 60 2 23 -1 42 -6 42 -5 0 -9 6 -9 14 0 14 -41 46 -59 46
-5 0 -16 -9 -24 -21z"/>
<path d="M337 2387 c-17 -13 -26 -74 -13 -95 11 -18 46 29 46 60 0 37 -13 50
-33 35z"/>
<path d="M1112 2381 c-21 -13 -4 -54 34 -78 l34 -22 0 28 c0 26 -33 81 -48 81
-4 0 -13 -4 -20 -9z"/>
<path d="M1616 2339 c-14 -11 -26 -27 -26 -35 0 -19 44 -18 64 2 37 37 3 65
-38 33z"/>
<path d="M3033 2303 c-13 -2 -23 -11 -23 -19 0 -8 -7 -14 -16 -14 -12 0 -15
-7 -12 -25 3 -14 1 -25 -4 -25 -6 0 -7 -8 -3 -17 4 -10 8 -24 9 -31 4 -26 21
-32 44 -16 12 8 20 19 17 23 -2 5 8 14 23 21 16 7 22 15 14 17 -6 3 -9 9 -6
15 8 12 -4 78 -14 77 -4 -1 -17 -4 -29 -6z"/>
<path d="M3141 2272 c-13 -25 -9 -71 7 -81 8 -5 13 -12 12 -17 -4 -15 28 -30
40 -18 14 14 22 94 9 94 -5 0 -9 7 -9 15 0 8 -4 15 -9 15 -5 0 -16 3 -24 6 -9
3 -20 -2 -26 -14z"/>
<path d="M3368 2283 c-16 -4 -36 -78 -25 -90 11 -10 66 21 73 42 16 48 2 62
-48 48z"/>
<path d="M230 2248 c1 -23 24 -62 38 -64 4 0 14 -3 22 -7 8 -3 24 -7 35 -9 26
-4 33 32 9 49 -11 8 -18 16 -16 18 6 12 1 26 -7 20 -5 -3 -12 -1 -16 5 -3 5
-19 10 -36 10 -24 0 -29 -4 -29 -22z"/>
<path d="M858 2215 c-6 -14 -16 -25 -21 -25 -5 0 -3 -7 4 -17 8 -9 13 -24 11
-34 -2 -10 6 -23 17 -29 12 -6 21 -17 21 -25 0 -8 9 -15 19 -15 11 0 21 -4 23
-10 2 -5 14 -11 27 -12 22 -3 25 1 26 35 1 20 -2 37 -8 37 -5 0 -6 11 -3 25 5
18 2 27 -8 31 -9 3 -18 14 -21 25 -4 10 -15 19 -25 19 -10 0 -22 5 -25 10 -11
17 -25 11 -37 -15z"/>
<path d="M495 2210 c-4 -6 -15 -8 -26 -5 -10 4 -19 2 -19 -3 0 -5 -9 -12 -20
-15 -18 -5 -19 -8 -9 -31 7 -14 20 -26 31 -26 10 0 18 -4 18 -9 0 -11 63 -6
89 8 12 7 21 16 21 22 0 22 -21 49 -38 49 -10 0 -23 5 -29 11 -8 8 -13 8 -18
-1z"/>
<path d="M2833 2196 c-14 -6 -23 -20 -23 -34 0 -15 -4 -21 -12 -16 -8 5 -9 2
-3 -12 4 -10 8 -28 9 -40 1 -11 7 -28 15 -37 7 -10 10 -17 5 -17 -9 0 27 -29
37 -30 9 0 30 51 24 60 -3 4 1 13 9 19 18 15 14 60 -9 94 -19 29 -20 30 -52
13z"/>
<path d="M3261 2129 c-25 -27 -28 -77 -5 -86 25 -9 65 36 62 72 -4 38 -29 44
-57 14z"/>
<path d="M3382 2117 c-29 -31 -28 -37 8 -37 19 0 33 7 40 20 22 42 -13 54 -48
17z"/>
<path d="M2948 2113 c-10 -2 -18 -11 -18 -18 0 -7 -4 -15 -9 -17 -4 -1 -11
-13 -15 -24 -5 -17 -2 -23 16 -27 12 -4 27 -2 32 3 6 6 16 10 24 10 20 0 41
30 42 58 0 18 -5 22 -27 21 -16 -1 -36 -3 -45 -6z"/>
<path d="M3075 2090 c-5 -22 -1 -38 16 -61 19 -27 23 -29 31 -14 23 41 13 84
-24 98 -13 4 -18 -1 -23 -23z"/>
<path d="M1133 2049 c-13 -4 -23 -15 -23 -23 0 -25 12 -46 25 -46 7 0 15 -5
17 -11 4 -12 88 -16 106 -5 26 16 7 57 -25 55 -4 0 -10 7 -13 17 -7 19 -54 27
-87 13z"/>
<path d="M3008 1984 c-16 -8 -28 -19 -28 -24 0 -6 -6 -10 -12 -10 -24 0 -36
-45 -22 -79 l13 -31 36 17 c19 9 35 23 35 30 0 7 5 13 11 13 6 0 9 7 6 15 -4
8 -2 17 3 20 14 8 12 28 -2 48 -12 14 -16 14 -40 1z"/>
<path d="M3138 1976 c-10 -7 -18 -18 -18 -24 0 -6 -4 -12 -9 -14 -4 -1 -12
-13 -15 -25 -7 -20 -4 -23 22 -23 31 0 86 23 77 32 -3 3 1 10 9 17 8 6 12 21
9 31 -6 23 -48 27 -75 6z"/>
<path d="M390 1885 c0 -10 -11 -15 -35 -15 -26 0 -33 -3 -29 -15 4 -9 1 -15
-8 -15 -7 0 -19 -9 -26 -21 -11 -18 -9 -24 16 -54 21 -23 34 -30 43 -24 21 13
39 11 39 -6 0 -22 17 -18 41 9 13 14 28 22 39 19 12 -3 22 3 30 16 6 12 14 20
18 17 4 -2 19 14 34 35 l28 39 -38 0 c-21 0 -43 5 -50 12 -8 8 -15 8 -24 0 -9
-7 -20 -7 -38 3 -32 18 -40 18 -40 0z"/>
<path d="M2950 1771 c-19 -10 -35 -25 -36 -32 0 -8 -2 -16 -3 -19 -1 -3 -4
-15 -7 -27 -3 -19 1 -23 20 -23 14 0 31 7 40 15 8 8 20 15 26 15 7 0 10 7 7
15 -4 8 -2 17 3 20 13 8 12 18 -2 38 -12 16 -15 16 -48 -2z"/>
<path d="M3120 1781 c-8 -5 -17 -8 -22 -5 -10 7 -46 -31 -49 -53 -2 -10 0 -24
4 -30 10 -15 77 -17 77 -3 0 6 5 10 10 10 20 0 51 41 48 63 -3 24 -42 34 -68
18z"/>
<path d="M2536 1762 c-4 -10 -3 -29 2 -41 8 -22 8 -22 26 -2 10 11 16 28 14
38 -5 25 -35 29 -42 5z"/>
<path d="M1162 1722 c-18 -14 -20 -20 -10 -30 17 -17 42 -15 68 6 45 36 -12
59 -58 24z"/>
<path d="M450 1652 c0 -4 -15 -6 -34 -4 -27 3 -34 0 -39 -18 -4 -16 -11 -20
-24 -16 -11 3 -28 0 -38 -8 -16 -12 -17 -16 -6 -30 7 -9 10 -16 5 -16 -5 0
-18 -7 -28 -15 -16 -12 -17 -17 -6 -31 12 -14 9 -20 -26 -49 l-39 -33 28 -13
c24 -11 32 -10 58 5 17 10 33 15 36 12 4 -3 13 0 21 7 12 9 16 9 19 0 7 -21
20 -15 33 17 10 24 16 28 26 19 21 -17 34 -1 34 41 0 33 3 37 20 33 17 -4 20
0 20 24 0 16 5 34 11 40 21 21 2 43 -36 43 -19 0 -35 -4 -35 -8z"/>
<path d="M2140 1648 c0 -6 -9 -8 -20 -5 -11 3 -20 1 -20 -4 0 -5 -11 -19 -25
-31 -37 -32 -33 -64 8 -71 17 -2 37 0 44 5 7 5 17 7 23 3 14 -9 55 33 62 62 7
25 1 31 -42 43 -20 6 -30 5 -30 -2z"/>
<path d="M3009 1655 c-8 -8 1 -55 11 -55 4 0 10 -10 13 -22 4 -12 9 -19 13
-15 4 4 12 3 19 -3 6 -5 21 -7 33 -3 18 4 21 10 15 32 -3 14 -10 28 -15 29 -4
2 -8 9 -8 16 0 6 -8 12 -17 13 -10 1 -27 4 -38 8 -11 3 -23 4 -26 0z"/>
<path d="M3204 1617 c-3 -11 -15 -28 -26 -39 -28 -28 -18 -43 31 -46 29 -2 41
0 36 7 -4 7 4 11 19 11 16 0 26 6 26 15 0 8 5 15 10 15 6 0 10 14 10 31 0 30
0 30 -50 27 -38 -2 -52 -7 -56 -21z"/>
<path d="M90 1579 c-32 -13 -32 -13 -24 -43 3 -14 12 -26 20 -26 8 0 14 -7 14
-15 0 -12 12 -14 62 -10 75 6 88 16 56 44 -12 12 -31 29 -40 37 -9 9 -21 13
-27 10 -5 -4 -12 -2 -16 4 -7 12 -12 12 -45 -1z"/>
<path d="M1078 1563 c-21 -5 -21 -4 -8 -37 5 -14 23 -32 40 -41 30 -15 30 -15
30 9 0 31 -39 74 -62 69z"/>
<path d="M3220 1471 c-8 -6 -18 -7 -24 -4 -5 3 -14 -1 -20 -9 -6 -8 -19 -17
-28 -21 -31 -11 -22 -45 14 -52 18 -4 41 -13 51 -19 15 -8 21 -8 24 1 2 7 10
10 17 7 8 -3 26 6 41 20 26 25 27 25 8 50 -11 16 -24 23 -35 20 -10 -3 -18 -1
-18 5 0 13 -10 14 -30 2z"/>
<path d="M2983 1369 c-12 -4 -23 -11 -26 -16 -7 -12 23 -74 33 -68 4 3 11 -2
14 -11 3 -8 11 -12 17 -8 6 3 15 1 19 -7 7 -10 14 -10 35 -1 21 10 25 17 20
35 -4 12 -13 27 -21 33 -8 6 -14 15 -14 20 0 15 -55 31 -77 23z"/>
<path d="M543 1357 c-4 -8 -15 -16 -23 -19 -9 -3 -22 -17 -29 -32 -13 -23 -12
-28 4 -47 12 -12 27 -18 39 -15 11 3 26 1 32 -5 9 -7 16 -4 24 11 7 13 17 19
26 16 9 -4 18 3 24 19 5 14 14 25 20 25 6 0 10 10 8 22 -2 16 -12 24 -35 29
-20 4 -34 2 -36 -5 -3 -8 -8 -7 -18 2 -17 15 -26 15 -36 -1z"/>
<path d="M2850 1345 c0 -20 36 -55 56 -55 29 0 31 13 4 40 -18 18 -60 28 -60
15z"/>
<path d="M406 1320 c-28 -13 -34 -20 -25 -26 10 -6 5 -10 -16 -14 -23 -4 -30
-11 -30 -28 0 -12 -13 -33 -30 -47 -29 -24 -29 -25 -11 -40 18 -14 18 -16 3
-33 -21 -23 -22 -42 -2 -42 8 0 15 -8 15 -17 0 -9 7 -24 16 -34 15 -17 19 -17
45 -3 16 8 29 19 29 24 0 6 9 10 20 10 21 0 24 8 20 49 -1 15 2 21 10 16 6 -4
17 -1 25 5 13 11 12 17 -5 46 l-21 33 21 3 c18 3 19 5 6 29 -7 15 -12 38 -9
51 6 34 -13 39 -61 18z"/>
<path d="M3209 1270 c-7 -5 -16 -7 -20 -4 -4 2 -25 -12 -46 -31 -36 -34 -37
-36 -19 -50 25 -19 116 -18 116 2 0 8 5 11 10 8 9 -6 30 33 30 55 0 13 -56 29
-71 20z"/>
<path d="M2346 1254 c-3 -8 -12 -14 -19 -14 -8 0 -20 -6 -26 -14 -10 -12 -7
-18 14 -32 14 -9 28 -14 32 -11 3 4 14 2 24 -4 13 -6 19 -6 19 1 0 5 6 10 13
10 8 0 19 11 25 25 13 28 7 34 -44 45 -24 6 -34 4 -38 -6z"/>
<path d="M2438 1153 c-41 -21 -52 -47 -28 -68 11 -10 26 -15 34 -12 8 3 17 1
19 -6 3 -9 10 -7 23 4 10 9 24 15 29 13 13 -5 47 55 39 68 -4 5 -20 8 -36 6
-16 -3 -31 -1 -34 4 -7 10 -13 9 -46 -9z"/>
<path d="M1250 1109 c0 -6 -5 -7 -12 -3 -6 4 -21 -4 -33 -21 -22 -27 -22 -28
-3 -47 11 -11 26 -17 33 -14 8 3 17 1 21 -5 4 -6 13 -4 25 7 11 9 22 14 25 11
4 -3 18 8 32 24 15 19 21 34 15 40 -13 13 -103 21 -103 8z"/>
<path d="M781 1039 c-6 -17 -8 -36 -4 -43 4 -6 6 -19 5 -28 -2 -11 3 -18 12
-18 9 0 15 -6 14 -12 -2 -8 9 -14 24 -16 22 -3 30 2 37 21 13 34 3 66 -31 99
-36 36 -44 35 -57 -3z"/>
<path d="M309 873 c-19 -22 21 -50 66 -45 37 4 38 19 4 41 -32 20 -56 21 -70
4z"/>
<path d="M2210 855 c0 -8 -5 -15 -12 -15 -6 0 -22 -9 -34 -21 -22 -21 -22 -21
-2 -41 11 -11 26 -17 33 -14 8 3 17 1 21 -5 4 -6 13 -4 24 6 10 9 24 14 29 10
6 -3 11 -2 11 3 0 5 9 19 20 32 24 28 14 43 -27 42 -15 0 -36 4 -45 9 -14 7
-18 6 -18 -6z"/>
<path d="M2556 792 c-20 -38 -7 -85 22 -80 23 4 28 61 8 89 -14 21 -14 21 -30
-9z"/>
<path d="M180 778 c0 -21 37 -48 66 -48 33 0 34 9 5 40 -29 32 -71 37 -71 8z"/>
<path d="M2083 679 c-30 -11 -29 -20 7 -54 28 -27 74 -36 99 -21 11 7 2 46
-10 46 -5 0 -9 7 -9 16 0 11 -6 15 -19 11 -10 -2 -24 -1 -32 3 -8 4 -24 4 -36
-1z"/>
<path d="M830 658 c-7 -15 -17 -25 -21 -22 -5 3 -9 -11 -9 -30 0 -32 2 -35 23
-27 29 11 44 52 30 83 l-11 23 -12 -27z"/>
<path d="M3008 629 c-10 -5 -18 -17 -18 -24 0 -8 -5 -15 -10 -15 -13 0 -6 -68
8 -82 13 -13 52 -1 52 18 0 8 4 14 9 14 10 0 8 43 -3 78 -8 25 -13 26 -38 11z"/>
<path d="M2539 574 c-12 -14 5 -54 22 -54 5 0 14 -12 19 -26 6 -16 16 -24 24
-21 7 3 18 1 24 -5 6 -6 24 -7 41 -3 26 6 31 11 31 36 0 18 -6 32 -16 36 -8 3
-13 12 -10 19 4 10 -3 14 -24 14 -17 0 -30 4 -30 8 0 13 -70 9 -81 -4z"/>
<path d="M834 443 c6 -26 39 -63 56 -63 4 0 11 8 14 17 9 23 -25 67 -54 71
-20 3 -22 1 -16 -25z"/>
<path d="M1097 439 c-30 -24 -35 -34 -27 -48 6 -12 5 -22 -1 -28 -14 -14 27
-54 47 -46 8 3 14 -1 14 -7 0 -9 6 -8 18 3 10 10 24 17 30 17 21 0 53 41 50
63 -1 12 1 28 6 35 11 18 2 25 -39 27 -20 1 -39 5 -42 9 -10 10 -17 7 -56 -25z"/>
<path d="M2390 445 c0 -18 10 -31 33 -45 l32 -20 3 21 c5 28 -24 69 -48 69
-15 0 -20 -7 -20 -25z"/>
<path d="M2550 357 c-44 -15 -45 -35 -2 -59 30 -16 36 -17 67 -4 19 8 35 18
35 21 0 16 -22 45 -30 40 -5 -3 -11 -1 -15 5 -8 12 -11 12 -55 -3z"/>
</g>
</svg>
